<svg xmlns="http://www.w3.org/2000/svg" width="360" height="220" viewBox="0 0 360 220" fill="none" role="img" aria-labelledby="title desc">
  <title id="title">Belum ada data presensi</title><desc id="desc">Kalender kosong ditemani tanaman kecil dan pensil.</desc>
  <rect width="360" height="220" rx="26" fill="#FFF5E3"/><rect x="73" y="38" width="175" height="142" rx="18" fill="#FFF" stroke="#E8DDCB" stroke-width="3"/><path d="M73 69h175" stroke="#E8DDCB" stroke-width="3"/><path d="M111 29v22m99-22v22" stroke="#A6412D" stroke-width="8" stroke-linecap="round"/><circle cx="103" cy="94" r="5" fill="#ED896F"/><circle cx="140" cy="94" r="5" fill="#7CD3AA"/><circle cx="177" cy="94" r="5" fill="#F2C879"/><circle cx="214" cy="94" r="5" fill="#ED896F"/><path d="M103 118h112m-112 23h75" stroke="#E8DDCB" stroke-width="7" stroke-linecap="round"/><path d="M279 153c-7-24 1-43 22-56 1 19-4 33-17 44m-4 9c8-18 20-27 40-27-7 17-19 26-36 27" stroke="#5A9B74" stroke-width="7" stroke-linecap="round" stroke-linejoin="round"/><path d="M262 179h78" stroke="#A6412D" stroke-width="8" stroke-linecap="round"/><path d="M55 185h152" stroke="#E8DDCB" stroke-width="4" stroke-linecap="round"/><circle cx="284" cy="59" r="18" fill="#F2C879"/><path d="m281 54 7 5-7 5" stroke="#303044" stroke-width="3" stroke-linecap="round" stroke-linejoin="round"/>
</svg>
